<svg width="36" height="36" viewBox="0 0 36 36" fill="none" xmlns="http://www.w3.org/2000/svg">
<rect width="36" height="36" rx="9" fill="#E01836"/>
<path d="M29.7105 9.82229C28.4726 9.89358 20.7047 9.70425 19.5618 9.774H16.3333C15.1904 9.70425 6.89976 9.82229 6.38236 9.82229C4.8409 9.82229 5.09001 11.4649 6.27581 12.4185C7.43018 13.4862 7.85407 13.3176 8.06103 12.8102C8.26722 12.3027 9.79642 12.6469 10.8596 12.9029C13.9632 13.6503 15.7821 16.1874 16.1025 19.672C16.114 19.7977 16.1225 19.925 16.1301 20.053V26.9892C16.1301 27.4123 16.4735 27.7557 16.8967 27.7557H17.9598H19.026C19.4507 27.7557 19.7941 27.4108 19.7925 26.9869L19.7703 19.9717C19.7772 19.8713 19.7833 19.7709 19.7918 19.672C20.113 16.1874 21.9311 13.6503 25.0347 12.9029C26.0979 12.6469 27.6263 12.3027 27.8333 12.8102C28.0395 13.3176 28.4634 13.4862 29.6185 12.4185C30.7736 11.3507 31.0726 9.98479 29.7105 9.82229Z" fill="white"/>
</svg>
