<svg width="2490" height="62" viewBox="0 0 2490 62" fill="none" xmlns="http://www.w3.org/2000/svg">
<rect width="110" height="62" rx="31" fill="white"/>
<g clip-path="url(#clip0_16819_2969)">
<g clip-path="url(#clip1_16819_2969)">
<path d="M31 48.8755C41.4934 48.8755 50 40.8051 50 30.8498C50 20.8946 41.4934 12.8242 31 12.8242C20.5066 12.8242 12 20.8946 12 30.8498C12 40.8051 20.5066 48.8755 31 48.8755Z" fill="#F0F0F0"/>
</g>
<g clip-path="url(#clip2_16819_2969)">
<path d="M30.1738 30.8706H49.9998C49.9998 29.1557 49.7712 27.4944 49.3453 25.9141H30.1738V30.8706Z" fill="#D80027"/>
<path d="M30.1738 20.9565H47.2111C46.0481 19.0586 44.5609 17.3811 42.827 16H30.1738V20.9565Z" fill="#D80027"/>
<path d="M30.9996 49.8706C35.4712 49.8706 39.5812 48.325 42.8268 45.7402H19.1724C22.4179 48.325 26.528 49.8706 30.9996 49.8706Z" fill="#D80027"/>
<path d="M14.7885 40.7807H47.2111C48.1448 39.2571 48.869 37.5916 49.3452 35.8242H12.6543C13.1306 37.5916 13.8547 39.2571 14.7885 40.7807Z" fill="#D80027"/>
</g>
<g clip-path="url(#clip3_16819_2969)">
<path d="M20.8012 15.4536H22.5326L20.9221 16.5067L21.5373 18.2106L19.9268 17.1575L18.3163 18.2106L18.8477 16.7386C17.4297 17.8016 16.1868 19.0472 15.1626 20.4349H15.7174L14.6922 21.1052C14.5325 21.3451 14.3793 21.5886 14.2325 21.8358L14.722 23.1919L13.8087 22.5946C13.5817 23.0276 13.374 23.4702 13.1874 23.9221L13.7267 25.4162H15.7174L14.1068 26.4693L14.722 28.1732L13.1116 27.1202L12.1469 27.751C12.0503 28.4496 12 29.161 12 29.8832H31C31 20.4392 31 19.3258 31 12.7832C27.2466 12.7832 23.7477 13.7631 20.8012 15.4536ZM21.5373 28.1732L19.9268 27.1202L18.3163 28.1732L18.9315 26.4693L17.321 25.4162H19.3117L19.9268 23.7123L20.5419 25.4162H22.5326L20.9221 26.4693L21.5373 28.1732ZM20.9221 21.488L21.5373 23.1919L19.9268 22.1389L18.3163 23.1919L18.9315 21.488L17.321 20.4349H19.3117L19.9268 18.731L20.5419 20.4349H22.5326L20.9221 21.488ZM28.3525 28.1732L26.742 27.1202L25.1315 28.1732L25.7467 26.4693L24.1362 25.4162H26.1269L26.742 23.7123L27.3571 25.4162H29.3478L27.7373 26.4693L28.3525 28.1732ZM27.7373 21.488L28.3525 23.1919L26.742 22.1389L25.1315 23.1919L25.7467 21.488L24.1362 20.4349H26.1269L26.742 18.731L27.3571 20.4349H29.3478L27.7373 21.488ZM27.7373 16.5067L28.3525 18.2106L26.742 17.1575L25.1315 18.2106L25.7467 16.5067L24.1362 15.4536H26.1269L26.742 13.7497L27.3571 15.4536H29.3478L27.7373 16.5067Z" fill="#0052B4"/>
</g>
</g>
<path d="M70.1761 23.9091H71.7614V32.5767C71.7614 33.4716 71.5504 34.2706 71.1286 34.9737C70.7109 35.6726 70.1207 36.2244 69.358 36.6293C68.5952 37.0298 67.7003 37.2301 66.6733 37.2301C65.6463 37.2301 64.7514 37.0298 63.9886 36.6293C63.2259 36.2244 62.6335 35.6726 62.2116 34.9737C61.794 34.2706 61.5852 33.4716 61.5852 32.5767V23.9091H63.1705V32.4489C63.1705 33.0881 63.3111 33.657 63.5923 34.1555C63.8736 34.6499 64.2741 35.0398 64.794 35.3253C65.3182 35.6065 65.9446 35.7472 66.6733 35.7472C67.402 35.7472 68.0284 35.6065 68.5526 35.3253C69.0767 35.0398 69.4773 34.6499 69.7543 34.1555C70.0355 33.657 70.1761 33.0881 70.1761 32.4489V23.9091ZM82.0861 27.1818C82.0094 26.5341 81.6983 26.0312 81.1529 25.6733C80.6074 25.3153 79.9384 25.1364 79.1458 25.1364C78.5662 25.1364 78.0591 25.2301 77.6245 25.4176C77.1941 25.6051 76.8574 25.8629 76.6145 26.1911C76.3759 26.5192 76.2566 26.892 76.2566 27.3097C76.2566 27.6591 76.3397 27.9595 76.5059 28.2109C76.6763 28.4581 76.8936 28.6648 77.1578 28.831C77.4221 28.9929 77.699 29.1271 77.9888 29.2337C78.2786 29.3359 78.5449 29.419 78.7878 29.483L80.1174 29.8409C80.4583 29.9304 80.8375 30.054 81.2551 30.2116C81.677 30.3693 82.0797 30.5845 82.4632 30.8572C82.851 31.1257 83.1706 31.4709 83.4221 31.8928C83.6735 32.3146 83.7992 32.8324 83.7992 33.446C83.7992 34.1534 83.6138 34.7926 83.2431 35.3636C82.8766 35.9347 82.3397 36.3885 81.6323 36.7251C80.9292 37.0618 80.0748 37.2301 79.0691 37.2301C78.1316 37.2301 77.3198 37.0788 76.6337 36.7763C75.9519 36.4737 75.415 36.0518 75.0229 35.5107C74.6351 34.9695 74.4157 34.3409 74.3645 33.625H76.0009C76.0435 34.1193 76.2097 34.5284 76.4995 34.8523C76.7935 35.1719 77.1642 35.4105 77.6117 35.5682C78.0634 35.7216 78.5492 35.7983 79.0691 35.7983C79.6742 35.7983 80.2175 35.7003 80.699 35.5043C81.1806 35.304 81.562 35.027 81.8432 34.6733C82.1245 34.3153 82.2651 33.8977 82.2651 33.4205C82.2651 32.9858 82.1436 32.6321 81.9007 32.3594C81.6578 32.0866 81.3382 31.8651 80.9419 31.6946C80.5456 31.5241 80.1174 31.375 79.6571 31.2472L78.0463 30.7869C77.0236 30.4929 76.214 30.0732 75.6174 29.5277C75.0208 28.9822 74.7225 28.2685 74.7225 27.3864C74.7225 26.6534 74.9206 26.0142 75.3169 25.4688C75.7175 24.919 76.2544 24.4929 76.9277 24.1903C77.6053 23.8835 78.3617 23.7301 79.1969 23.7301C80.0407 23.7301 80.7907 23.8814 81.4469 24.1839C82.1032 24.4822 82.623 24.8913 83.0066 25.4112C83.3944 25.9311 83.5989 26.5213 83.6202 27.1818H82.0861ZM90.4453 37H86.4055V23.9091H90.6243C91.8942 23.9091 92.9808 24.1712 93.8842 24.6953C94.7876 25.2152 95.4801 25.9631 95.9616 26.9389C96.4432 27.9105 96.6839 29.0739 96.6839 30.429C96.6839 31.7926 96.4411 32.9666 95.9553 33.951C95.4695 34.9311 94.7621 35.6854 93.8331 36.2138C92.9041 36.7379 91.7749 37 90.4453 37ZM87.9908 35.5938H90.343C91.4254 35.5938 92.3224 35.3849 93.0341 34.9673C93.7457 34.5497 94.2763 33.9553 94.6257 33.1839C94.9751 32.4126 95.1499 31.4943 95.1499 30.429C95.1499 29.3722 94.9773 28.4624 94.6321 27.6996C94.2869 26.9325 93.7713 26.3445 93.0852 25.9354C92.3991 25.522 91.5447 25.3153 90.522 25.3153H87.9908V35.5938Z" fill="#1D2939"/>
<rect x="120" width="108" height="62" rx="31" fill="white"/>
<g clip-path="url(#clip4_16819_2969)">
<g clip-path="url(#clip5_16819_2969)">
<path d="M151 48.8755C161.493 48.8755 170 40.8051 170 30.8498C170 20.8946 161.493 12.8242 151 12.8242C140.507 12.8242 132 20.8946 132 30.8498C132 40.8051 140.507 48.8755 151 48.8755Z" fill="#F0F0F0"/>
</g>
<g clip-path="url(#clip6_16819_2969)">
<path d="M151 11.8457C147.187 11.8457 143.637 12.9409 140.661 14.825L145.548 18.0162L139.435 21.1016L145.548 24.1871L139.435 27.2725L145.548 30.3575L139.435 33.4429L145.548 36.5282L139.435 39.6139L145.548 42.6993L140.661 45.8916C143.636 47.776 147.186 48.8714 151 48.8714C161.493 48.8714 170 40.5828 170 30.3586C170 20.1342 161.493 11.8457 151 11.8457Z" fill="#D80027"/>
</g>
</g>
<path d="M181.585 37V23.9091H189.486V25.3153H183.17V29.7386H189.077V31.1449H183.17V35.5938H189.588V37H181.585ZM200.934 23.9091H202.519V32.5767C202.519 33.4716 202.308 34.2706 201.886 34.9737C201.469 35.6726 200.879 36.2244 200.116 36.6293C199.353 37.0298 198.458 37.2301 197.431 37.2301C196.404 37.2301 195.509 37.0298 194.746 36.6293C193.984 36.2244 193.391 35.6726 192.969 34.9737C192.552 34.2706 192.343 33.4716 192.343 32.5767V23.9091H193.928V32.4489C193.928 33.0881 194.069 33.657 194.35 34.1555C194.631 34.6499 195.032 35.0398 195.552 35.3253C196.076 35.6065 196.702 35.7472 197.431 35.7472C198.16 35.7472 198.786 35.6065 199.31 35.3253C199.835 35.0398 200.235 34.6499 200.512 34.1555C200.793 33.657 200.934 33.0881 200.934 32.4489V23.9091ZM205.685 37V23.9091H210.108C211.131 23.9091 211.97 24.0838 212.627 24.4332C213.283 24.7784 213.769 25.2536 214.084 25.8587C214.399 26.4638 214.557 27.152 214.557 27.9233C214.557 28.6946 214.399 29.3786 214.084 29.9751C213.769 30.5717 213.285 31.0405 212.633 31.3814C211.981 31.718 211.148 31.8864 210.134 31.8864H206.554V30.4545H210.083C210.781 30.4545 211.344 30.3523 211.77 30.1477C212.2 29.9432 212.512 29.6534 212.703 29.2784C212.899 28.8991 212.997 28.4474 212.997 27.9233C212.997 27.3991 212.899 26.9411 212.703 26.549C212.507 26.157 212.194 25.8544 211.764 25.6413C211.333 25.424 210.764 25.3153 210.057 25.3153H207.27V37H205.685ZM211.847 31.1193L215.068 37H213.227L210.057 31.1193H211.847Z" fill="#1D2939"/>
<rect x="238" width="109" height="62" rx="31" fill="white"/>
<g clip-path="url(#clip7_16819_2969)">
<g clip-path="url(#clip8_16819_2969)">
<path d="M268.5 11.8457C266.322 11.8457 264.234 12.2531 262.305 12.9972L261.53 30.3586L262.305 47.7199C264.234 48.4641 266.322 48.8714 268.5 48.8714C270.679 48.8714 272.766 48.4641 274.696 47.7199L275.471 30.3586L274.696 12.9972C272.766 12.2531 270.679 11.8457 268.5 11.8457Z" fill="#FFDA44"/>
</g>
<g clip-path="url(#clip9_16819_2969)">
<path d="M288.001 30.8709C288.001 22.7016 282.845 15.7373 275.609 13.0527V48.6892C282.845 46.0046 288.001 39.0402 288.001 30.8709Z" fill="#D80027"/>
</g>
<g clip-path="url(#clip10_16819_2969)">
<path d="M261.438 48.6891V13.0527C254.76 15.7373 250 22.7016 250 30.8709C250 39.0402 254.76 46.0046 261.438 48.6891Z" fill="#0052B4"/>
</g>
</g>
<path d="M308.534 28C308.393 27.5696 308.208 27.1839 307.978 26.843C307.752 26.4979 307.482 26.2038 307.166 25.9609C306.855 25.718 306.501 25.5327 306.105 25.4048C305.709 25.277 305.274 25.2131 304.801 25.2131C304.026 25.2131 303.32 25.4134 302.685 25.8139C302.05 26.2145 301.545 26.8047 301.17 27.5845C300.795 28.3643 300.608 29.321 300.608 30.4545C300.608 31.5881 300.798 32.5447 301.177 33.3246C301.556 34.1044 302.07 34.6946 302.717 35.0952C303.365 35.4957 304.094 35.696 304.903 35.696C305.653 35.696 306.314 35.5362 306.885 35.2166C307.46 34.8928 307.908 34.4368 308.227 33.8487C308.551 33.2564 308.713 32.5597 308.713 31.7585L309.199 31.8608H305.261V30.4545H310.247V31.8608C310.247 32.9389 310.017 33.8764 309.557 34.6733C309.101 35.4702 308.47 36.0881 307.665 36.527C306.864 36.9616 305.943 37.179 304.903 37.179C303.744 37.179 302.726 36.9062 301.848 36.3608C300.974 35.8153 300.293 35.0398 299.803 34.0341C299.317 33.0284 299.074 31.8352 299.074 30.4545C299.074 29.419 299.212 28.4879 299.489 27.6612C299.771 26.8303 300.167 26.1229 300.678 25.5391C301.19 24.9553 301.795 24.5078 302.494 24.1967C303.192 23.8857 303.962 23.7301 304.801 23.7301C305.491 23.7301 306.135 23.8345 306.732 24.0433C307.332 24.2479 307.867 24.5398 308.336 24.919C308.809 25.294 309.203 25.7436 309.518 26.2678C309.834 26.7876 310.051 27.3651 310.17 28H308.534ZM312.962 37V23.9091H317.539C318.451 23.9091 319.203 24.0668 319.795 24.3821C320.388 24.6932 320.829 25.1129 321.118 25.6413C321.408 26.1655 321.553 26.7472 321.553 27.3864C321.553 27.9489 321.453 28.4134 321.253 28.7798C321.057 29.1463 320.797 29.4361 320.473 29.6491C320.153 29.8622 319.806 30.0199 319.431 30.1222V30.25C319.831 30.2756 320.234 30.4162 320.639 30.6719C321.044 30.9276 321.383 31.294 321.655 31.7713C321.928 32.2486 322.064 32.8324 322.064 33.5227C322.064 34.179 321.915 34.7692 321.617 35.2933C321.319 35.8175 320.848 36.233 320.204 36.5398C319.561 36.8466 318.724 37 317.692 37H312.962ZM314.547 35.5938H317.692C318.728 35.5938 319.463 35.3935 319.898 34.9929C320.336 34.5881 320.556 34.098 320.556 33.5227C320.556 33.0795 320.443 32.6705 320.217 32.2955C319.991 31.9162 319.67 31.6136 319.252 31.3878C318.834 31.1577 318.34 31.0426 317.769 31.0426H314.547V35.5938ZM314.547 29.6619H317.488C317.965 29.6619 318.395 29.5682 318.779 29.3807C319.167 29.1932 319.474 28.929 319.699 28.5881C319.93 28.2472 320.045 27.8466 320.045 27.3864C320.045 26.8111 319.844 26.3232 319.444 25.9226C319.043 25.5178 318.408 25.3153 317.539 25.3153H314.547V29.6619ZM324.669 37V23.9091H329.093C330.119 23.9091 330.959 24.0945 331.611 24.4652C332.267 24.8317 332.753 25.3281 333.068 25.9545C333.384 26.581 333.541 27.2798 333.541 28.0511C333.541 28.8224 333.384 29.5234 333.068 30.1541C332.757 30.7848 332.276 31.2876 331.624 31.6626C330.972 32.0334 330.137 32.2188 329.118 32.2188H325.948V30.8125H329.067C329.77 30.8125 330.335 30.6911 330.761 30.4482C331.187 30.2053 331.496 29.8771 331.688 29.4638C331.884 29.0462 331.982 28.5753 331.982 28.0511C331.982 27.527 331.884 27.0582 331.688 26.6449C331.496 26.2315 331.185 25.9077 330.754 25.6733C330.324 25.4347 329.753 25.3153 329.041 25.3153H326.254V37H324.669Z" fill="#1D2939"/>
<rect x="357" width="106" height="62" rx="31" fill="white"/>
<g clip-path="url(#clip11_16819_2969)">
<g clip-path="url(#clip12_16819_2969)">
<path d="M369 30.3764C369 32.5552 369.418 34.6423 370.181 36.572L388 37.3464L405.818 36.572C406.582 34.6423 407 32.5552 407 30.3764C407 28.1975 406.582 26.1104 405.818 24.1807L388 23.4062L370.181 24.1807C369.418 26.1104 369 28.1975 369 30.3764Z" fill="black"/>
</g>
<path d="M387.999 11.8066C379.83 11.8066 372.866 16.5945 370.181 23.3129H405.818C403.133 16.5945 396.169 11.8066 387.999 11.8066Z" fill="#0052B4"/>
<g clip-path="url(#clip13_16819_2969)">
<path d="M405.818 37.4785H370.181C372.866 44.7136 379.83 49.8699 387.999 49.8699C396.169 49.8699 403.133 44.7136 405.818 37.4785Z" fill="#F0F0F0"/>
</g>
</g>
<path d="M423.597 23.9091H425.182V33.267C425.182 34.1023 425.028 34.8118 424.722 35.3956C424.415 35.9794 423.982 36.4226 423.424 36.7251C422.866 37.0277 422.207 37.179 421.449 37.179C420.733 37.179 420.096 37.049 419.538 36.7891C418.979 36.5249 418.54 36.1499 418.221 35.6641C417.901 35.1783 417.741 34.6009 417.741 33.9318H419.301C419.301 34.3026 419.393 34.6264 419.576 34.9034C419.763 35.1761 420.019 35.3892 420.343 35.5426C420.667 35.696 421.036 35.7727 421.449 35.7727C421.905 35.7727 422.293 35.6768 422.612 35.4851C422.932 35.2933 423.175 35.0121 423.341 34.6413C423.511 34.2663 423.597 33.8082 423.597 33.267V23.9091ZM428.359 37V23.9091H432.782C433.809 23.9091 434.648 24.0945 435.3 24.4652C435.957 24.8317 436.442 25.3281 436.758 25.9545C437.073 26.581 437.231 27.2798 437.231 28.0511C437.231 28.8224 437.073 29.5234 436.758 30.1541C436.447 30.7848 435.965 31.2876 435.313 31.6626C434.661 32.0334 433.826 32.2188 432.808 32.2188H429.637V30.8125H432.756C433.46 30.8125 434.024 30.6911 434.45 30.4482C434.876 30.2053 435.185 29.8771 435.377 29.4638C435.573 29.0462 435.671 28.5753 435.671 28.0511C435.671 27.527 435.573 27.0582 435.377 26.6449C435.185 26.2315 434.874 25.9077 434.444 25.6733C434.013 25.4347 433.442 25.3153 432.731 25.3153H429.944V37H428.359ZM438.659 23.9091H440.475L444.105 30.0199H444.259L447.89 23.9091H449.705L444.975 31.6051V37H443.39V31.6051L438.659 23.9091Z" fill="#1D2939"/>
<rect x="473" width="111" height="62" rx="31" fill="white"/>
<g clip-path="url(#clip14_16819_2969)">
<g clip-path="url(#clip15_16819_2969)">
<path d="M486.885 23.3601C485.677 25.6201 485 28.1555 485 30.8342C485 33.5129 485.677 36.0483 486.885 38.3083L504 39.8031L521.115 38.3083C522.323 36.0483 523 33.5129 523 30.8342C523 28.1555 522.323 25.6201 521.115 23.3601L504 21.8652L486.885 23.3601Z" fill="black"/>
</g>
<g clip-path="url(#clip16_16819_2969)">
<path d="M486.837 39.1289C489.74 45.4843 495.886 49.8681 503 49.8681C510.115 49.8681 516.261 45.4843 519.164 39.1289H486.837Z" fill="#496E2D"/>
</g>
<g clip-path="url(#clip17_16819_2969)">
<path d="M486.837 21.6411H519.164C516.261 15.8153 510.115 11.7969 503 11.7969C495.886 11.7969 489.74 15.8153 486.837 21.6411Z" fill="#D80027"/>
</g>
<g clip-path="url(#clip18_16819_2969)">
<path d="M508.423 27.3945L509.982 29.5428L512.507 28.7242L510.945 30.8706L512.504 33.0188L509.98 32.197L508.419 34.3434L508.42 31.6893L505.896 30.8675L508.421 30.0489L508.423 27.3945Z" fill="#F0F0F0"/>
<path d="M504.169 36.238C501.203 36.238 498.799 33.834 498.799 30.8685C498.799 27.903 501.203 25.4989 504.169 25.4989C505.093 25.4989 505.963 25.7327 506.723 26.1443C505.531 24.979 503.902 24.2598 502.104 24.2598C498.454 24.2598 495.495 27.2186 495.495 30.8684C495.495 34.5182 498.454 37.477 502.104 37.477C503.902 37.477 505.531 36.7578 506.723 35.5925C505.963 36.0042 505.093 36.238 504.169 36.238Z" fill="#F0F0F0"/>
</g>
</g>
<path d="M545.119 28H543.534C543.44 27.544 543.276 27.1435 543.042 26.7983C542.812 26.4531 542.531 26.1634 542.198 25.929C541.87 25.6903 541.506 25.5114 541.105 25.392C540.705 25.2727 540.287 25.2131 539.852 25.2131C539.06 25.2131 538.342 25.4134 537.698 25.8139C537.059 26.2145 536.55 26.8047 536.17 27.5845C535.795 28.3643 535.608 29.321 535.608 30.4545C535.608 31.5881 535.795 32.5447 536.17 33.3246C536.55 34.1044 537.059 34.6946 537.698 35.0952C538.342 35.4957 539.06 35.696 539.852 35.696C540.287 35.696 540.705 35.6364 541.105 35.517C541.506 35.3977 541.87 35.2209 542.198 34.9865C542.531 34.7479 542.812 34.456 543.042 34.1108C543.276 33.7614 543.44 33.3608 543.534 32.9091H545.119C545 33.5781 544.783 34.1768 544.467 34.7053C544.152 35.2337 543.76 35.6832 543.291 36.054C542.822 36.4205 542.296 36.6996 541.712 36.8913C541.133 37.0831 540.513 37.179 539.852 37.179C538.736 37.179 537.743 36.9062 536.874 36.3608C536.004 35.8153 535.32 35.0398 534.822 34.0341C534.323 33.0284 534.074 31.8352 534.074 30.4545C534.074 29.0739 534.323 27.8807 534.822 26.875C535.32 25.8693 536.004 25.0938 536.874 24.5483C537.743 24.0028 538.736 23.7301 539.852 23.7301C540.513 23.7301 541.133 23.826 541.712 24.0178C542.296 24.2095 542.822 24.4908 543.291 24.8615C543.76 25.228 544.152 25.6754 544.467 26.2038C544.783 26.728 545 27.3267 545.119 28ZM558.062 23.9091V37H556.528L549.394 26.7216H549.266V37H547.681V23.9091H549.215L556.374 34.2131H556.502V23.9091H558.062ZM560.109 23.9091H561.924L565.555 30.0199H565.708L569.339 23.9091H571.154L566.424 31.6051V37H564.839V31.6051L560.109 23.9091Z" fill="#1D2939"/>
<defs>
<clipPath id="clip0_16819_2969">
<rect width="38" height="38" fill="white" transform="translate(12 12)"/>
</clipPath>
<clipPath id="clip1_16819_2969">
<rect width="38" height="37" fill="white" transform="translate(12 12)"/>
</clipPath>
<clipPath id="clip2_16819_2969">
<rect width="38" height="34" fill="white" transform="translate(12 16)"/>
</clipPath>
<clipPath id="clip3_16819_2969">
<rect width="19" height="18" fill="white" transform="translate(12 12)"/>
</clipPath>
<clipPath id="clip4_16819_2969">
<rect width="38" height="38" fill="white" transform="translate(132 12)"/>
</clipPath>
<clipPath id="clip5_16819_2969">
<rect width="38" height="37" fill="white" transform="translate(132 12)"/>
</clipPath>
<clipPath id="clip6_16819_2969">
<rect width="31" height="38" fill="white" transform="translate(139 11)"/>
</clipPath>
<clipPath id="clip7_16819_2969">
<rect width="38" height="38" fill="white" transform="translate(250 12)"/>
</clipPath>
<clipPath id="clip8_16819_2969">
<rect width="15" height="38" fill="white" transform="translate(261 11)"/>
</clipPath>
<clipPath id="clip9_16819_2969">
<rect width="13" height="36" fill="white" transform="translate(275 13)"/>
</clipPath>
<clipPath id="clip10_16819_2969">
<rect width="12" height="36" fill="white" transform="translate(250 13)"/>
</clipPath>
<clipPath id="clip11_16819_2969">
<rect width="38" height="38" fill="white" transform="translate(369 12)"/>
</clipPath>
<clipPath id="clip12_16819_2969">
<rect width="38" height="15" fill="white" transform="translate(369 23)"/>
</clipPath>
<clipPath id="clip13_16819_2969">
<rect width="36" height="13" fill="white" transform="translate(370 37)"/>
</clipPath>
<clipPath id="clip14_16819_2969">
<rect width="38" height="38" fill="white" transform="translate(485 12)"/>
</clipPath>
<clipPath id="clip15_16819_2969">
<rect width="38" height="19" fill="white" transform="translate(485 21)"/>
</clipPath>
<clipPath id="clip16_16819_2969">
<rect width="34" height="11" fill="white" transform="translate(486 39)"/>
</clipPath>
<clipPath id="clip17_16819_2969">
<rect width="34" height="11" fill="white" transform="translate(486 11)"/>
</clipPath>
<clipPath id="clip18_16819_2969">
<rect width="18" height="14" fill="white" transform="translate(495 24)"/>
</clipPath>
</defs>
</svg>
