<svg width="550" height="81" viewBox="0 0 550 81" fill="none" xmlns="http://www.w3.org/2000/svg">
<mask id="mask0_16819_3161" style="mask-type:alpha" maskUnits="userSpaceOnUse" x="0" y="0" width="550" height="81">
<rect width="550" height="81" fill="url(#paint0_linear_16819_3161)"/>
</mask>
<g mask="url(#mask0_16819_3161)">
<rect x="-106.34" y="9.5" width="107" height="62" rx="31" fill="white"/>
<rect x="10.6602" y="9.5" width="111" height="62" rx="31" fill="white"/>
<g clip-path="url(#clip0_16819_3161)">
<g clip-path="url(#clip1_16819_3161)">
<path d="M41.6602 58.3755C52.1536 58.3755 60.6602 50.3051 60.6602 40.3498C60.6602 30.3946 52.1536 22.3242 41.6602 22.3242C31.1667 22.3242 22.6602 30.3946 22.6602 40.3498C22.6602 50.3051 31.1667 58.3755 41.6602 58.3755Z" fill="#D80027"/>
</g>
<g clip-path="url(#clip2_16819_3161)">
<path d="M43.6223 35.7429C43.1905 37.5389 42.4233 37.1964 42.0468 38.7627C39.8289 38.2294 38.463 35.9992 38.9962 33.7811C39.5293 31.5633 41.7598 30.1974 43.9777 30.7306C43.2246 33.8632 44.0086 34.1366 43.6223 35.7429Z" fill="#F0F0F0"/>
<path d="M37.8667 37.0723C39.4414 38.0379 38.8786 38.6619 40.2518 39.504C39.0592 41.4486 36.5161 42.0583 34.5714 40.8659C32.6268 39.6734 32.017 37.1301 33.2095 35.1855C35.9561 36.8697 36.4581 36.2086 37.8667 37.0723Z" fill="#F0F0F0"/>
<path d="M37.3535 42.9583C38.7586 41.7591 39.1778 42.4871 40.4031 41.4414C41.8842 43.1764 41.6781 45.7836 39.9432 47.2646C38.2081 48.7456 35.6009 48.5394 34.1201 46.8045C36.5704 44.7128 36.0968 44.0308 37.3535 42.9583Z" fill="#F0F0F0"/>
<path d="M42.7925 45.2642C42.0859 43.5574 42.908 43.3834 42.292 41.8951C44.3998 41.0228 46.8158 42.0243 47.6881 44.1321C48.5604 46.2398 47.5588 48.6557 45.451 49.5281C44.2192 46.5512 43.4244 46.7909 42.7925 45.2642Z" fill="#F0F0F0"/>
<path d="M46.6667 40.804C44.8251 40.9485 44.9135 40.1128 43.3078 40.2388C43.1295 37.9649 44.8286 35.9765 47.1028 35.798C49.3768 35.6199 51.3651 37.3189 51.5434 39.5931C48.3315 39.845 48.3137 40.675 46.6667 40.804Z" fill="#F0F0F0"/>
</g>
</g>
<path d="M72.7823 46.5H71.1204L75.9272 33.4091H77.5636L82.3704 46.5H80.7085L76.7965 35.4801H76.6942L72.7823 46.5ZM73.396 41.3864H80.0948V42.7926H73.396V41.3864ZM93.0004 33.4091H94.5856V42.0767C94.5856 42.9716 94.3746 43.7706 93.9528 44.4737C93.5352 45.1726 92.945 45.7244 92.1822 46.1293C91.4194 46.5298 90.5245 46.7301 89.4975 46.7301C88.4705 46.7301 87.5756 46.5298 86.8129 46.1293C86.0501 45.7244 85.4577 45.1726 85.0359 44.4737C84.6183 43.7706 84.4094 42.9716 84.4094 42.0767V33.4091H85.9947V41.9489C85.9947 42.5881 86.1353 43.157 86.4165 43.6555C86.6978 44.1499 87.0984 44.5398 87.6183 44.8253C88.1424 45.1065 88.7688 45.2472 89.4975 45.2472C90.2262 45.2472 90.8526 45.1065 91.3768 44.8253C91.9009 44.5398 92.3015 44.1499 92.5785 43.6555C92.8597 43.157 93.0004 42.5881 93.0004 41.9489V33.4091ZM101.791 46.5H97.7512V33.4091H101.97C103.24 33.4091 104.327 33.6712 105.23 34.1953C106.133 34.7152 106.826 35.4631 107.307 36.4389C107.789 37.4105 108.03 38.5739 108.03 39.929C108.03 41.2926 107.787 42.4666 107.301 43.451C106.815 44.4311 106.108 45.1854 105.179 45.7138C104.25 46.2379 103.121 46.5 101.791 46.5ZM99.3365 45.0938H101.689C102.771 45.0938 103.668 44.8849 104.38 44.4673C105.091 44.0497 105.622 43.4553 105.971 42.6839C106.321 41.9126 106.496 40.9943 106.496 39.929C106.496 38.8722 106.323 37.9624 105.978 37.1996C105.633 36.4325 105.117 35.8445 104.431 35.4354C103.745 35.022 102.89 34.8153 101.868 34.8153H99.3365V45.0938Z" fill="#1D2939"/>
<rect x="131.66" y="9.5" width="111" height="62" rx="31" fill="white"/>
<g clip-path="url(#clip3_16819_3161)">
<g clip-path="url(#clip4_16819_3161)">
<path d="M162.66 58.3755C173.154 58.3755 181.66 50.3051 181.66 40.3498C181.66 30.3946 173.154 22.3242 162.66 22.3242C152.167 22.3242 143.66 30.3946 143.66 40.3498C143.66 50.3051 152.167 58.3755 162.66 58.3755Z" fill="#F0F0F0"/>
</g>
<g clip-path="url(#clip5_16819_3161)">
<path d="M149.145 52.8882C149.917 53.6603 150.74 54.3489 151.605 54.9551L177.242 29.318C176.636 28.4539 175.947 27.63 175.175 26.8579C174.403 26.0858 173.579 25.3973 172.715 24.791L147.078 50.4282C147.684 51.2922 148.372 52.1161 149.145 52.8882Z" fill="#A2001D"/>
</g>
<g clip-path="url(#clip6_16819_3161)">
<path d="M149.226 26.7121C143.232 32.4996 142.081 41.1913 145.771 48.0951L171.373 23.3768C164.222 19.8137 155.22 20.9249 149.226 26.7121Z" fill="#0052B4"/>
</g>
<g clip-path="url(#clip7_16819_3161)">
<path d="M176.096 53.803C182.09 47.809 183.241 38.8067 179.55 31.6562L153.949 57.2575C161.1 60.9478 170.102 59.7971 176.096 53.803Z" fill="#496E2D"/>
</g>
<g clip-path="url(#clip8_16819_3161)">
<path d="M158.384 31.5978L156.448 32.5081L157.479 34.3826L155.377 33.9806L155.111 36.1037L153.647 34.5421L152.183 36.1037L151.917 33.9806L149.815 34.3826L150.846 32.5081L148.91 31.5978L150.846 30.6873L149.815 28.8129L151.917 29.2149L152.183 27.0918L153.647 28.6534L155.111 27.0918L155.377 29.2149L157.479 28.8129L156.448 30.6874L158.384 31.5978Z" fill="#FFDA44"/>
</g>
</g>
<path d="M203.779 37.5H202.194C202.1 37.044 201.936 36.6435 201.702 36.2983C201.472 35.9531 201.191 35.6634 200.858 35.429C200.53 35.1903 200.166 35.0114 199.765 34.892C199.365 34.7727 198.947 34.7131 198.512 34.7131C197.72 34.7131 197.002 34.9134 196.358 35.3139C195.719 35.7145 195.21 36.3047 194.831 37.0845C194.456 37.8643 194.268 38.821 194.268 39.9545C194.268 41.0881 194.456 42.0447 194.831 42.8246C195.21 43.6044 195.719 44.1946 196.358 44.5952C197.002 44.9957 197.72 45.196 198.512 45.196C198.947 45.196 199.365 45.1364 199.765 45.017C200.166 44.8977 200.53 44.7209 200.858 44.4865C201.191 44.2479 201.472 43.956 201.702 43.6108C201.936 43.2614 202.1 42.8608 202.194 42.4091H203.779C203.66 43.0781 203.443 43.6768 203.127 44.2053C202.812 44.7337 202.42 45.1832 201.951 45.554C201.483 45.9205 200.956 46.1996 200.373 46.3913C199.793 46.5831 199.173 46.679 198.512 46.679C197.396 46.679 196.403 46.4062 195.534 45.8608C194.664 45.3153 193.98 44.5398 193.482 43.5341C192.983 42.5284 192.734 41.3352 192.734 39.9545C192.734 38.5739 192.983 37.3807 193.482 36.375C193.98 35.3693 194.664 34.5938 195.534 34.0483C196.403 33.5028 197.396 33.2301 198.512 33.2301C199.173 33.2301 199.793 33.326 200.373 33.5178C200.956 33.7095 201.483 33.9908 201.951 34.3615C202.42 34.728 202.812 35.1754 203.127 35.7038C203.443 36.228 203.66 36.8267 203.779 37.5ZM206.878 46.5H205.216L210.023 33.4091H211.659L216.466 46.5H214.804L210.892 35.4801H210.79L206.878 46.5ZM207.492 41.3864H214.191V42.7926H207.492V41.3864ZM222.545 46.5H218.505V33.4091H222.724C223.994 33.4091 225.08 33.6712 225.984 34.1953C226.887 34.7152 227.58 35.4631 228.061 36.4389C228.543 37.4105 228.784 38.5739 228.784 39.929C228.784 41.2926 228.541 42.4666 228.055 43.451C227.569 44.4311 226.862 45.1854 225.933 45.7138C225.004 46.2379 223.874 46.5 222.545 46.5ZM220.09 45.0938H222.443C223.525 45.0938 224.422 44.8849 225.134 44.4673C225.845 44.0497 226.376 43.4553 226.725 42.6839C227.075 41.9126 227.249 40.9943 227.249 39.929C227.249 38.8722 227.077 37.9624 226.732 37.1996C226.387 36.4325 225.871 35.8445 225.185 35.4354C224.499 35.022 223.644 34.8153 222.622 34.8153H220.09V45.0938Z" fill="#1D2939"/>
<rect x="252.66" y="9.5" width="109" height="62" rx="31" fill="white"/>
<g clip-path="url(#clip9_16819_3161)">
<g clip-path="url(#clip10_16819_3161)">
<path d="M283.66 58.3755C294.154 58.3755 302.66 50.3051 302.66 40.3498C302.66 30.3946 294.154 22.3242 283.66 22.3242C273.167 22.3242 264.66 30.3946 264.66 40.3498C264.66 50.3051 273.167 58.3755 283.66 58.3755Z" fill="#F0F0F0"/>
</g>
<g clip-path="url(#clip11_16819_3161)">
<path d="M269.897 52.8285C262.914 45.6735 262.914 34.073 269.897 26.918L280.21 39.8732L269.897 52.8285Z" fill="black"/>
</g>
<g clip-path="url(#clip12_16819_3161)">
<path d="M280.212 39.8755L267.085 30.8867C266.679 31.6036 266.32 32.3518 266.011 33.1263L272.657 39.8756L266.011 46.6253C266.32 47.3992 266.678 48.1469 267.085 48.8633L280.212 39.8755Z" fill="#FFDA44"/>
</g>
<g clip-path="url(#clip13_16819_3161)">
<path d="M302.5 37.4852H281.182L270.225 26.9199C269.045 28.0584 268.019 29.346 267.18 30.751L276.624 39.8749L267.18 48.9977C268.018 50.403 269.044 51.691 270.225 52.8298L281.182 42.2646H302.5C302.605 41.4824 302.66 40.6848 302.66 39.8749C302.66 39.065 302.605 38.2674 302.5 37.4852Z" fill="#6DA544"/>
</g>
<g clip-path="url(#clip14_16819_3161)">
<path d="M272.078 55.4398C275.178 57.9026 279.059 59.3677 283.272 59.3677C291.768 59.3677 298.916 53.4138 301.026 45.3242H281.867L272.078 55.4398Z" fill="#0052B4"/>
</g>
<g clip-path="url(#clip15_16819_3161)">
<path d="M301.026 35.4178C298.916 27.8675 291.768 22.3105 283.272 22.3105C279.059 22.3105 275.178 23.678 272.078 25.9766L281.867 35.4178H301.026Z" fill="#D80027"/>
</g>
</g>
<path d="M324.779 37.5H323.194C323.1 37.044 322.936 36.6435 322.702 36.2983C322.472 35.9531 322.191 35.6634 321.858 35.429C321.53 35.1903 321.166 35.0114 320.765 34.892C320.365 34.7727 319.947 34.7131 319.512 34.7131C318.72 34.7131 318.002 34.9134 317.358 35.3139C316.719 35.7145 316.21 36.3047 315.831 37.0845C315.456 37.8643 315.268 38.821 315.268 39.9545C315.268 41.0881 315.456 42.0447 315.831 42.8246C316.21 43.6044 316.719 44.1946 317.358 44.5952C318.002 44.9957 318.72 45.196 319.512 45.196C319.947 45.196 320.365 45.1364 320.765 45.017C321.166 44.8977 321.53 44.7209 321.858 44.4865C322.191 44.2479 322.472 43.956 322.702 43.6108C322.936 43.2614 323.1 42.8608 323.194 42.4091H324.779C324.66 43.0781 324.443 43.6768 324.127 44.2053C323.812 44.7337 323.42 45.1832 322.951 45.554C322.483 45.9205 321.956 46.1996 321.373 46.3913C320.793 46.5831 320.173 46.679 319.512 46.679C318.396 46.679 317.403 46.4062 316.534 45.8608C315.664 45.3153 314.98 44.5398 314.482 43.5341C313.983 42.5284 313.734 41.3352 313.734 39.9545C313.734 38.5739 313.983 37.3807 314.482 36.375C314.98 35.3693 315.664 34.5938 316.534 34.0483C317.403 33.5028 318.396 33.2301 319.512 33.2301C320.173 33.2301 320.793 33.326 321.373 33.5178C321.956 33.7095 322.483 33.9908 322.951 34.3615C323.42 34.728 323.812 35.1754 324.127 35.7038C324.443 36.228 324.66 36.8267 324.779 37.5ZM327.341 46.5V33.4091H328.926V39.2386H335.906V33.4091H337.492V46.5H335.906V40.6449H328.926V46.5H327.341ZM340.665 46.5V33.4091H348.515V34.8153H342.251V39.2386H347.927V40.6449H342.251V46.5H340.665Z" fill="#1D2939"/>
<rect x="371.66" y="9.5" width="102" height="62" rx="31" fill="white"/>
<g clip-path="url(#clip16_16819_3161)">
<g clip-path="url(#clip17_16819_3161)">
<path d="M421.66 40.3498C421.66 50.3051 413.153 58.3755 402.66 58.3755C392.167 58.3755 383.66 50.3051 383.66 40.3498C383.66 40.3542 402.66 22.3262 402.66 22.3242C413.153 22.3242 421.66 30.3946 421.66 40.3498Z" fill="#0052B4"/>
</g>
<g clip-path="url(#clip18_16819_3161)">
<path d="M402.61 41.3693H402.661C402.661 41.3522 402.661 41.3356 402.661 41.3184C402.644 41.3354 402.627 41.3524 402.61 41.3693Z" fill="#F0F0F0"/>
<path d="M402.661 32.2821C402.661 28.939 402.661 26.7484 402.661 22.3691H402.658C392.166 22.3709 383.661 30.8768 383.661 41.3691H393.574V35.7871L399.156 41.3691H402.61C402.627 41.3522 402.644 41.3353 402.661 41.3183C402.661 40.0382 402.661 38.8961 402.661 37.8644L397.079 32.2821H402.661Z" fill="#F0F0F0"/>
</g>
<g clip-path="url(#clip19_16819_3161)">
<path d="M393.273 23.8477C390.301 25.5398 387.831 28.0102 386.139 30.9819V40.3694H391.095V28.8044L402.66 28.8042C402.66 27.2409 402.66 25.7517 402.66 23.8477H393.273Z" fill="#D80027"/>
<path d="M402.661 38.0336L395.91 31.2832H393.574L402.661 40.3701C402.661 40.3701 402.661 38.759 402.661 38.0336Z" fill="#D80027"/>
</g>
<g clip-path="url(#clip20_16819_3161)">
<path d="M405.064 31.2324V39.7514C405.064 43.9012 409.957 45.1727 409.957 45.1727C409.957 45.1727 414.85 43.9012 414.85 39.7514V31.2324H405.064Z" fill="#FFDA44"/>
</g>
<g clip-path="url(#clip21_16819_3161)">
<path d="M409.237 34.2401C409.237 35.0005 408.682 36.9937 407.997 36.9937C407.313 36.9937 406.758 35.0005 406.758 34.2401C406.758 33.4797 407.997 32.8633 407.997 32.8633C407.997 32.8633 409.237 33.4797 409.237 34.2401Z" fill="#FF9811"/>
</g>
<g clip-path="url(#clip22_16819_3161)">
<path d="M413.873 35.7396C414.05 35.1975 414.189 34.4051 414.189 34.0106C414.189 33.3769 413.528 32.8633 413.528 32.8633C413.528 32.8633 412.867 33.377 412.867 34.0106C412.867 34.4051 413.005 35.1975 413.183 35.7396L412.801 36.8164C413.026 36.9303 413.271 36.9937 413.528 36.9937C413.785 36.9937 414.03 36.9303 414.254 36.8164L413.873 35.7396Z" fill="#A2001D"/>
</g>
<g clip-path="url(#clip23_16819_3161)">
<path d="M409.478 40.196C409.478 40.196 408.817 41.5178 408.817 42.8395C408.817 42.8395 410.799 42.8395 412.121 42.8395C412.121 41.5178 411.46 40.196 411.46 40.196L410.469 39.5352L409.478 40.196Z" fill="#6DA544"/>
</g>
<g clip-path="url(#clip24_16819_3161)">
<path d="M411.328 40.3709V39.9579C411.328 39.2736 410.958 38.7188 410.501 38.7188C410.045 38.7188 409.675 39.2735 409.675 39.9579V40.3709H411.328Z" fill="#D80027"/>
</g>
</g>
<path d="M434.831 33.4091V46.5H433.245V33.4091H434.831ZM448.39 33.4091V46.5H446.856L439.722 36.2216H439.594V46.5H438.009V33.4091H439.543L446.702 43.7131H446.83V33.4091H448.39ZM451.562 46.5V33.4091H455.985C457.008 33.4091 457.847 33.5838 458.504 33.9332C459.16 34.2784 459.646 34.7536 459.961 35.3587C460.276 35.9638 460.434 36.652 460.434 37.4233C460.434 38.1946 460.276 38.8786 459.961 39.4751C459.646 40.0717 459.162 40.5405 458.51 40.8814C457.858 41.218 457.025 41.3864 456.011 41.3864H452.431V39.9545H455.96C456.658 39.9545 457.221 39.8523 457.647 39.6477C458.077 39.4432 458.388 39.1534 458.58 38.7784C458.776 38.3991 458.874 37.9474 458.874 37.4233C458.874 36.8991 458.776 36.4411 458.58 36.049C458.384 35.657 458.071 35.3544 457.641 35.1413C457.21 34.924 456.641 34.8153 455.934 34.8153H453.147V46.5H451.562ZM457.724 40.6193L460.945 46.5H459.104L455.934 40.6193H457.724Z" fill="#1D2939"/>
<rect x="483.66" y="9.5" width="109" height="62" rx="31" fill="white"/>
<g clip-path="url(#clip25_16819_3161)">
<g clip-path="url(#clip26_16819_3161)">
<path d="M514.66 58.3755C525.154 58.3755 533.66 50.3051 533.66 40.3498C533.66 30.3946 525.154 22.3242 514.66 22.3242C504.167 22.3242 495.66 30.3946 495.66 40.3498C495.66 50.3051 504.167 58.3755 514.66 58.3755Z" fill="#F0F0F0"/>
</g>
<g clip-path="url(#clip27_16819_3161)">
<path d="M499.588 28.8008C498.095 30.7426 496.97 32.9806 496.315 35.4119H506.199L499.588 28.8008Z" fill="#0052B4"/>
<path d="M533.006 35.4118C532.351 32.9806 531.226 30.7426 529.733 28.8008L523.122 35.4118H533.006Z" fill="#0052B4"/>
<path d="M496.315 45.3262C496.97 47.7574 498.095 49.9955 499.588 51.9372L506.199 45.3262H496.315Z" fill="#0052B4"/>
<path d="M526.227 25.2966C524.286 23.8042 522.048 22.6788 519.616 22.0234V31.9076L526.227 25.2966Z" fill="#0052B4"/>
<path d="M503.092 55.439C505.034 56.9315 507.272 58.0569 509.703 58.7122V48.8281L503.092 55.439Z" fill="#0052B4"/>
<path d="M509.703 22.0234C507.272 22.6788 505.034 23.8042 503.092 25.2966L509.703 31.9076V22.0234Z" fill="#0052B4"/>
<path d="M519.616 58.7122C522.047 58.0569 524.286 56.9315 526.227 55.4391L519.616 48.8281V58.7122Z" fill="#0052B4"/>
<path d="M523.122 45.3262L529.733 51.9373C531.226 49.9956 532.351 47.7574 533.006 45.3262H523.122Z" fill="#0052B4"/>
</g>
<g clip-path="url(#clip28_16819_3161)">
<path d="M533.499 38.8909H517.139L517.138 22.53C516.327 22.4244 515.5 22.3691 514.66 22.3691C513.82 22.3691 512.993 22.4244 512.182 22.53V38.8907L495.821 38.8908C495.715 39.7021 495.66 40.5292 495.66 41.3691C495.66 42.2092 495.715 43.0362 495.821 43.8474H512.182L512.182 60.2083C512.993 60.3139 513.82 60.3691 514.66 60.3691C515.5 60.3691 516.327 60.314 517.138 60.2083V43.8475L533.499 43.8474C533.605 43.0362 533.66 42.2092 533.66 41.3691C533.66 40.5292 533.605 39.7021 533.499 38.8909Z" fill="#D80027"/>
<path d="M519.617 46.3282L528.095 54.8066C528.485 54.4168 528.857 54.0093 529.212 53.5868L521.953 46.3281L519.617 46.3282Z" fill="#D80027"/>
<path d="M509.704 46.3281L501.225 54.8065C501.615 55.1964 502.022 55.5684 502.445 55.9233L509.704 48.6644V46.3281Z" fill="#D80027"/>
<path d="M509.703 36.4123L501.225 27.9336C500.835 28.3234 500.463 28.7309 500.108 29.1534L507.367 36.4122L509.703 36.4123Z" fill="#D80027"/>
<path d="M519.617 36.4138L528.095 27.9351C527.706 27.5452 527.298 27.1732 526.875 26.8184L519.617 34.0772V36.4138Z" fill="#D80027"/>
</g>
</g>
<path d="M545.245 46.5V33.4091H549.669C550.691 33.4091 551.531 33.5838 552.187 33.9332C552.843 34.2784 553.329 34.7536 553.645 35.3587C553.96 35.9638 554.118 36.652 554.118 37.4233C554.118 38.1946 553.96 38.8786 553.645 39.4751C553.329 40.0717 552.846 40.5405 552.194 40.8814C551.542 41.218 550.708 41.3864 549.694 41.3864H546.115V39.9545H549.643C550.342 39.9545 550.904 39.8523 551.331 39.6477C551.761 39.4432 552.072 39.1534 552.264 38.7784C552.46 38.3991 552.558 37.9474 552.558 37.4233C552.558 36.8991 552.46 36.4411 552.264 36.049C552.068 35.657 551.755 35.3544 551.324 35.1413C550.894 34.924 550.325 34.8153 549.618 34.8153H546.831V46.5H545.245ZM551.407 40.6193L554.629 46.5H552.788L549.618 40.6193H551.407ZM565.35 33.4091H566.935V42.0767C566.935 42.9716 566.724 43.7706 566.302 44.4737C565.885 45.1726 565.295 45.7244 564.532 46.1293C563.769 46.5298 562.874 46.7301 561.847 46.7301C560.82 46.7301 559.925 46.5298 559.162 46.1293C558.4 45.7244 557.807 45.1726 557.385 44.4737C556.968 43.7706 556.759 42.9716 556.759 42.0767V33.4091H558.344V41.9489C558.344 42.5881 558.485 43.157 558.766 43.6555C559.047 44.1499 559.448 44.5398 559.968 44.8253C560.492 45.1065 561.118 45.2472 561.847 45.2472C562.576 45.2472 563.202 45.1065 563.726 44.8253C564.251 44.5398 564.651 44.1499 564.928 43.6555C565.209 43.157 565.35 42.5881 565.35 41.9489V33.4091ZM570.101 46.5V33.4091H574.678C575.589 33.4091 576.342 33.5668 576.934 33.8821C577.526 34.1932 577.967 34.6129 578.257 35.1413C578.547 35.6655 578.692 36.2472 578.692 36.8864C578.692 37.4489 578.592 37.9134 578.391 38.2798C578.195 38.6463 577.935 38.9361 577.612 39.1491C577.292 39.3622 576.945 39.5199 576.57 39.6222V39.75C576.97 39.7756 577.373 39.9162 577.778 40.1719C578.183 40.4276 578.521 40.794 578.794 41.2713C579.067 41.7486 579.203 42.3324 579.203 43.0227C579.203 43.679 579.054 44.2692 578.756 44.7933C578.457 45.3175 577.987 45.733 577.343 46.0398C576.7 46.3466 575.862 46.5 574.831 46.5H570.101ZM571.686 45.0938H574.831C575.866 45.0938 576.602 44.8935 577.036 44.4929C577.475 44.0881 577.695 43.598 577.695 43.0227C577.695 42.5795 577.582 42.1705 577.356 41.7955C577.13 41.4162 576.808 41.1136 576.391 40.8878C575.973 40.6577 575.479 40.5426 574.908 40.5426H571.686V45.0938ZM571.686 39.1619H574.626C575.104 39.1619 575.534 39.0682 575.918 38.8807C576.305 38.6932 576.612 38.429 576.838 38.0881C577.068 37.7472 577.183 37.3466 577.183 36.8864C577.183 36.3111 576.983 35.8232 576.582 35.4226C576.182 35.0178 575.547 34.8153 574.678 34.8153H571.686V39.1619Z" fill="#1D2939"/>
</g>
<defs>
<linearGradient id="paint0_linear_16819_3161" x1="0" y1="40.5" x2="550" y2="40.5" gradientUnits="userSpaceOnUse">
<stop stop-opacity="0"/>
<stop offset="0.125"/>
<stop offset="0.875"/>
<stop offset="1" stop-opacity="0"/>
</linearGradient>
<clipPath id="clip0_16819_3161">
<rect width="38" height="38" fill="white" transform="translate(22.6602 21.5)"/>
</clipPath>
<clipPath id="clip1_16819_3161">
<rect width="38" height="37" fill="white" transform="translate(22.6602 21.5)"/>
</clipPath>
<clipPath id="clip2_16819_3161">
<rect width="20" height="20" fill="white" transform="translate(31.6602 30.5)"/>
</clipPath>
<clipPath id="clip3_16819_3161">
<rect width="38" height="38" fill="white" transform="translate(143.66 21.5)"/>
</clipPath>
<clipPath id="clip4_16819_3161">
<rect width="38" height="37" fill="white" transform="translate(143.66 21.5)"/>
</clipPath>
<clipPath id="clip5_16819_3161">
<rect width="31" height="31" fill="white" transform="translate(146.66 24.5)"/>
</clipPath>
<clipPath id="clip6_16819_3161">
<rect width="28" height="28" fill="white" transform="translate(143.66 20.5)"/>
</clipPath>
<clipPath id="clip7_16819_3161">
<rect width="28" height="28" fill="white" transform="translate(153.66 31.5)"/>
</clipPath>
<clipPath id="clip8_16819_3161">
<rect width="10" height="10" fill="white" transform="translate(148.66 26.5)"/>
</clipPath>
<clipPath id="clip9_16819_3161">
<rect width="38" height="38" fill="white" transform="translate(264.66 21.5)"/>
</clipPath>
<clipPath id="clip10_16819_3161">
<rect width="38" height="37" fill="white" transform="translate(264.66 21.5)"/>
</clipPath>
<clipPath id="clip11_16819_3161">
<rect width="16" height="27" fill="white" transform="translate(264.66 26.5)"/>
</clipPath>
<clipPath id="clip12_16819_3161">
<rect width="15" height="19" fill="white" transform="translate(265.66 30.5)"/>
</clipPath>
<clipPath id="clip13_16819_3161">
<rect width="36" height="27" fill="white" transform="translate(266.66 26.5)"/>
</clipPath>
<clipPath id="clip14_16819_3161">
<rect width="30" height="15" fill="white" transform="translate(271.66 44.5)"/>
</clipPath>
<clipPath id="clip15_16819_3161">
<rect width="30" height="14" fill="white" transform="translate(271.66 21.5)"/>
</clipPath>
<clipPath id="clip16_16819_3161">
<rect width="38" height="38" fill="white" transform="translate(383.66 21.5)"/>
</clipPath>
<clipPath id="clip17_16819_3161">
<rect width="38" height="37" fill="white" transform="translate(383.66 21.5)"/>
</clipPath>
<clipPath id="clip18_16819_3161">
<rect width="19" height="20" fill="white" transform="translate(383.66 21.5)"/>
</clipPath>
<clipPath id="clip19_16819_3161">
<rect width="17" height="17" fill="white" transform="translate(385.66 23.5)"/>
</clipPath>
<clipPath id="clip20_16819_3161">
<rect width="11" height="15" fill="white" transform="translate(404.66 30.5)"/>
</clipPath>
<clipPath id="clip21_16819_3161">
<rect width="3" height="5" fill="white" transform="translate(406.66 32.5)"/>
</clipPath>
<clipPath id="clip22_16819_3161">
<rect width="2" height="5" fill="white" transform="translate(412.66 32.5)"/>
</clipPath>
<clipPath id="clip23_16819_3161">
<rect width="4" height="4" fill="white" transform="translate(408.66 39.5)"/>
</clipPath>
<clipPath id="clip24_16819_3161">
<rect width="2" height="2" fill="white" transform="translate(409.66 38.5)"/>
</clipPath>
<clipPath id="clip25_16819_3161">
<rect width="38" height="38" fill="white" transform="translate(495.66 21.5)"/>
</clipPath>
<clipPath id="clip26_16819_3161">
<rect width="38" height="37" fill="white" transform="translate(495.66 21.5)"/>
</clipPath>
<clipPath id="clip27_16819_3161">
<rect width="38" height="38" fill="white" transform="translate(495.66 21.5)"/>
</clipPath>
<clipPath id="clip28_16819_3161">
<rect width="38" height="39" fill="white" transform="translate(495.66 21.5)"/>
</clipPath>
</defs>
</svg>
