<svg width="24" height="17" viewBox="0 0 24 17" fill="none" xmlns="http://www.w3.org/2000/svg">
<path d="M23.0451 0.0664199C21.8761 0.133734 14.5411 -0.0450465 13.4619 0.0208204H10.4132C9.33398 -0.0450465 1.50527 0.0664199 1.0167 0.0664199C-0.438874 0.0664199 -0.203637 1.61755 0.916093 2.51797C2.00615 3.52624 2.40642 3.367 2.60184 2.88784C2.79655 2.40868 4.24054 2.73367 5.24447 2.97542C8.17516 3.68114 9.89276 6.07696 10.1953 9.36741C10.2062 9.48611 10.2141 9.60626 10.2214 9.72714V16.2769C10.2214 16.6765 10.5456 17.0007 10.9452 17.0007H11.9491H12.9559C13.3569 17.0007 13.6812 16.675 13.6797 16.2747L13.6587 9.65042C13.6652 9.5556 13.671 9.46078 13.679 9.36741C13.9823 6.07696 15.6991 3.68114 18.6298 2.97542C19.6338 2.73367 21.077 2.40868 21.2725 2.88784C21.4672 3.367 21.8674 3.52624 22.9582 2.51797C24.049 1.5097 24.3313 0.219868 23.0451 0.0664199Z" fill="#E01836"/>
</svg>
